<svg xmlns="http://www.w3.org/2000/svg" viewBox="0 0 100 100">
  <defs>
    <style>
      .bg { fill: #0a0a1a; }
      .w1 { fill: none; stroke: #e94560; stroke-width: 2.5; stroke-opacity: 0.9; stroke-linecap: round; stroke-linejoin: round; }
      .w2 { fill: none; stroke: #3498db; stroke-width: 2.5; stroke-opacity: 0.8; stroke-linecap: round; stroke-linejoin: round; }
      .w3 { fill: none; stroke: #2ecc71; stroke-width: 2.5; stroke-opacity: 0.8; stroke-linecap: round; stroke-linejoin: round; }
    </style>
  </defs>
  <rect class="bg" width="100" height="100" rx="14"/>

  <!-- Red: 2 cycles -->
  <polyline class="w1" points="5.0,50.0 6.5,57.2 8.0,64.0 9.4,70.3 10.9,75.7 12.4,80.0 13.9,83.1 15.3,84.7 16.8,84.9 18.3,83.6 19.8,80.9 21.2,76.9 22.7,71.7 24.2,65.6 25.7,58.9 27.1,51.8 28.6,44.6 30.1,37.7 31.6,31.2 33.0,25.6 34.5,21.0 36.0,17.6 37.5,15.6 38.9,15.0 40.4,15.9 41.9,18.3 43.4,22.0 44.8,26.9 46.3,32.8 47.8,39.4 49.3,46.4 50.7,53.6 52.2,60.6 53.7,67.2 55.2,73.1 56.6,78.0 58.1,81.7 59.6,84.1 61.1,85.0 62.5,84.4 64.0,82.4 65.5,79.0 67.0,74.4 68.4,68.8 69.9,62.3 71.4,55.4 72.9,48.2 74.3,41.1 75.8,34.4 77.3,28.3 78.8,23.1 80.2,19.1 81.7,16.4 83.2,15.1 84.7,15.3 86.1,16.9 87.6,20.0 89.1,24.3 90.6,29.7 92.0,36.0 93.5,42.8 95.0,50.0"/>

  <!-- Blue: 2.5 cycles, phase pi/4 -->
  <polyline class="w2" points="5.0,74.7 6.5,80.2 8.0,83.7 9.4,85.0 10.9,84.0 12.4,80.7 13.9,75.4 15.3,68.4 16.8,60.2 18.3,51.4 19.8,42.4 21.2,33.9 22.7,26.6 24.2,20.7 25.7,16.8 27.1,15.1 28.6,15.7 30.1,18.5 31.6,23.4 33.0,30.1 34.5,38.1 36.0,46.8 37.5,55.8 38.9,64.4 40.4,72.1 41.9,78.3 43.4,82.6 44.8,84.8 46.3,84.6 47.8,82.2 49.3,77.7 50.7,71.4 52.2,63.6 53.7,54.9 55.2,46.0 56.6,37.2 58.1,29.4 59.6,22.8 61.1,18.1 62.5,15.5 64.0,15.1 65.5,17.1 67.0,21.2 68.4,27.2 69.9,34.8 71.4,43.3 72.9,52.3 74.3,61.1 75.8,69.2 77.3,76.0 78.8,81.1 80.2,84.2 81.7,85.0 83.2,83.5 84.7,79.8 86.1,74.1 87.6,66.8 89.1,58.5 90.6,49.5 92.0,40.7 93.5,32.4 95.0,25.3"/>

  <!-- Green: 3 cycles, phase pi/2 -->
  <polyline class="w3" points="5.0,75.0 6.5,73.8 8.0,70.4 9.4,65.0 10.9,58.2 12.4,50.6 13.9,43.0 15.3,36.0 16.8,30.4 18.3,26.6 19.8,25.0 21.2,25.8 22.7,28.9 24.2,34.0 25.7,40.6 27.1,48.1 28.6,55.7 30.1,62.9 31.6,68.8 33.0,72.9 34.5,74.9 36.0,74.5 37.5,71.8 38.9,67.0 40.4,60.6 41.9,53.2 43.4,45.5 44.8,38.3 46.3,32.1 47.8,27.6 49.3,25.3 50.7,25.3 52.2,27.6 53.7,32.1 55.2,38.3 56.6,45.5 58.1,53.2 59.6,60.6 61.1,67.0 62.5,71.8 64.0,74.5 65.5,74.9 67.0,72.9 68.4,68.8 69.9,62.9 71.4,55.7 72.9,48.1 74.3,40.6 75.8,34.0 77.3,28.9 78.8,25.8 80.2,25.0 81.7,26.6 83.2,30.4 84.7,36.0 86.1,43.0 87.6,50.6 89.1,58.2 90.6,65.0 92.0,70.4 93.5,73.8 95.0,75.0"/>
</svg>